<svg xmlns="http://www.w3.org/2000/svg" width="1600" height="900" viewBox="0 0 1600 900" role="img" aria-labelledby="title desc">
      <title id="title">קירוי איילון: פארק עירוני מעל התשתית שמחלקת את העיר</title><desc id="desc">איור קונספטואלי מקורי. אינו מפה או תכנית סטטוטורית.</desc><defs>
      <linearGradient id="sky" x1="0" y1="0" x2="0" y2="1"><stop offset="0" stop-color="#e8f4f8"/><stop offset="1" stop-color="#f3efe6"/></linearGradient>
      <filter id="shadow" x="-20%" y="-20%" width="140%" height="140%"><feDropShadow dx="0" dy="18" stdDeviation="15" flood-opacity=".14"/></filter>
      <pattern id="grid" width="40" height="40" patternUnits="userSpaceOnUse"><path d="M40 0H0V40" fill="none" stroke="#14213d" stroke-opacity=".06"/></pattern>
    </defs>
      <rect width="1600" height="900" fill="url(#sky)"/><circle cx="1430" cy="120" r="70" fill="#f4d35e" opacity=".8"/>
      <rect x="90" y="440" width="1420" height="230" rx="26" fill="#394552"/><path d="M130 560 H1470" stroke="#f4d35e" stroke-width="7" stroke-dasharray="32 25"/><path d="M170 485 C460 410 620 500 850 430 C1080 360 1260 420 1430 350 L1430 445 C1210 510 1030 480 850 535 C620 600 430 515 170 600Z" fill="#7dbb7a" filter="url(#shadow)"/><path d="M200 525 C470 455 650 545 850 480 C1080 410 1230 470 1410 400" fill="none" stroke="#f8f3e8" stroke-width="28" stroke-linecap="round"/><path d="M215 526 C470 465 640 552 850 490 C1060 430 1235 478 1395 417" fill="none" stroke="#2a9d8f" stroke-width="6" stroke-dasharray="14 12"/>
      <rect x="70" y="55" width="760" height="122" rx="24" fill="#ffffff" opacity=".94"/>
      <text x="105" y="108" font-family="Arial, sans-serif" font-size="42" font-weight="700" fill="#14213d" direction="rtl" unicode-bidi="bidi-override">קירוי איילון: פארק עירוני מעל התשתית שמחלקת את העיר</text>
      <text x="105" y="148" font-family="Arial, sans-serif" font-size="23" fill="#5f6b7a" direction="rtl" unicode-bidi="bidi-override">חיבור עירוני מעל כביש, רכבת ונחל</text>
      <text x="1510" y="842" text-anchor="end" font-family="Arial, sans-serif" font-size="20" fill="#14213d" opacity=".7" direction="rtl" unicode-bidi="bidi-override">איור קונספטואלי, לא מסמך תכנון</text>
    </svg>